<svg width="33" height="22" viewBox="0 0 33 22" fill="none" xmlns="http://www.w3.org/2000/svg">
<g clip-path="url(#clip0_62_2)">
<path d="M1.833 3.667C0.821 3.667 0 3.667 0 3.667V0C0 0 0.821 0 1.833 0H31.167C32.179 0 33 0 33 0V3.667C33 3.667 32.179 3.667 31.167 3.667H1.833Z" fill="black"/>
<path d="M7.333 12.833C6.321 12.833 5.5 12.833 5.5 12.833V9.16699C5.5 9.16699 6.321 9.16699 7.333 9.16699H31.167C32.179 9.16699 33 9.16699 33 9.16699V12.833C33 12.833 32.179 12.833 31.167 12.833H7.333Z" fill="black"/>
<path d="M1.833 22C0.821 22 0 22 0 22V18.333C0 18.333 0.821 18.333 1.833 18.333H31.167C32.179 18.333 33 18.333 33 18.333V22C33 22 32.179 22 31.167 22H1.833Z" fill="black"/>
</g>
<defs>
<clipPath id="clip0_62_2">
<rect width="33" height="22" fill="white"/>
</clipPath>
</defs>
</svg>
