<svg width="21" height="20" viewBox="0 0 21 20" fill="none" xmlns="http://www.w3.org/2000/svg">
<g clip-path="url(#clip0_113_2)">
<g filter="url(#filter0_i_113_2)">
<path d="M20 16.8972L18.944 18.0472C18.6782 18.3444 18.3532 18.5828 17.9898 18.7469C17.6264 18.911 17.2327 18.9973 16.834 19.0002C16.435 18.997 16.0411 18.9106 15.6774 18.7465C15.3138 18.5824 14.9883 18.3442 14.722 18.0472C14.4557 17.7508 14.1305 17.5132 13.7672 17.3496C13.4039 17.186 13.0104 17.1 12.612 17.0972C12.2133 17.1001 11.8196 17.1861 11.4559 17.3497C11.0923 17.5133 10.7667 17.7508 10.5 18.0472M1 19.0002H2.768C3.284 19.0002 3.542 19.0002 3.786 18.9422C4.00114 18.8902 4.20692 18.8052 4.396 18.6902C4.608 18.5602 4.79 18.3792 5.156 18.0152L18.416 4.80717C18.6237 4.60036 18.7887 4.35464 18.9014 4.08405C19.0142 3.81346 19.0725 3.52331 19.073 3.23017C19.0734 2.78822 18.942 2.3562 18.6956 1.98927C18.4493 1.62234 18.0992 1.33717 17.69 1.17017C17.2809 1.00148 16.8311 0.957336 16.3971 1.04326C15.963 1.12918 15.564 1.34136 15.25 1.65317L1.99 14.8612C1.624 15.2252 1.441 15.4072 1.311 15.6182C1.19519 15.8063 1.1098 16.0115 1.058 16.2262C1 16.4672 1 16.7252 1 17.2402V19.0002Z" stroke="url(#paint0_linear_113_2)" stroke-width="2" stroke-linecap="round" stroke-linejoin="round"/>
</g>
</g>
<defs>
<filter id="filter0_i_113_2" x="-9.91821e-05" y="0.000488281" width="21.0001" height="20.8" filterUnits="userSpaceOnUse" color-interpolation-filters="sRGB">
<feFlood flood-opacity="0" result="BackgroundImageFix"/>
<feBlend mode="normal" in="SourceGraphic" in2="BackgroundImageFix" result="shape"/>
<feColorMatrix in="SourceAlpha" type="matrix" values="0 0 0 0 0 0 0 0 0 0 0 0 0 0 0 0 0 0 127 0" result="hardAlpha"/>
<feOffset dy="1"/>
<feGaussianBlur stdDeviation="0.4"/>
<feComposite in2="hardAlpha" operator="arithmetic" k2="-1" k3="1"/>
<feColorMatrix type="matrix" values="0 0 0 0 0 0 0 0 0 0 0 0 0 0 0 0 0 0 0.24 0"/>
<feBlend mode="normal" in2="shape" result="effect1_innerShadow_113_2"/>
</filter>
<linearGradient id="paint0_linear_113_2" x1="10.5" y1="1.00017" x2="10.5" y2="19.0002" gradientUnits="userSpaceOnUse">
<stop stop-color="white"/>
<stop offset="1" stop-color="#7D7D7D"/>
</linearGradient>
<clipPath id="clip0_113_2">
<rect width="21" height="20" fill="white"/>
</clipPath>
</defs>
</svg>
