<svg width="24" height="18" viewBox="0 0 24 18" fill="none" xmlns="http://www.w3.org/2000/svg">
<g clip-path="url(#clip0_114_6)">
<g filter="url(#filter0_i_114_6)">
<path d="M5.4 6.333H5.411M7.6 11.667H7.611M9.8 6.333H9.811M12 11.667H12.011M14.2 6.333H14.211M16.4 11.667H16.411M18.6 6.333H18.611M4.52 17H19.48C20.712 17 21.328 17 21.799 16.71C22.213 16.454 22.549 16.046 22.76 15.544C23 14.974 23 14.227 23 12.734V5.266C23 3.772 23 3.026 22.76 2.455C22.55 1.953 22.213 1.545 21.799 1.29C21.328 1 20.712 1 19.48 1H4.52C3.288 1 2.672 1 2.201 1.29C1.787 1.546 1.451 1.954 1.24 2.456C1 3.026 1 3.773 1 5.266V12.733C1 14.227 1 14.973 1.24 15.544C1.45 16.046 1.787 16.454 2.201 16.709C2.672 17 3.288 17 4.52 17Z" stroke="url(#paint0_linear_114_6)" stroke-width="2" stroke-linecap="round" stroke-linejoin="round"/>
</g>
</g>
<defs>
<filter id="filter0_i_114_6" x="0" y="0" width="24" height="18.8" filterUnits="userSpaceOnUse" color-interpolation-filters="sRGB">
<feFlood flood-opacity="0" result="BackgroundImageFix"/>
<feBlend mode="normal" in="SourceGraphic" in2="BackgroundImageFix" result="shape"/>
<feColorMatrix in="SourceAlpha" type="matrix" values="0 0 0 0 0 0 0 0 0 0 0 0 0 0 0 0 0 0 127 0" result="hardAlpha"/>
<feOffset dy="1"/>
<feGaussianBlur stdDeviation="0.4"/>
<feComposite in2="hardAlpha" operator="arithmetic" k2="-1" k3="1"/>
<feColorMatrix type="matrix" values="0 0 0 0 0 0 0 0 0 0 0 0 0 0 0 0 0 0 0.24 0"/>
<feBlend mode="normal" in2="shape" result="effect1_innerShadow_114_6"/>
</filter>
<linearGradient id="paint0_linear_114_6" x1="12" y1="1" x2="12" y2="17" gradientUnits="userSpaceOnUse">
<stop stop-color="white"/>
<stop offset="1" stop-color="#7D7D7D"/>
</linearGradient>
<clipPath id="clip0_114_6">
<rect width="24" height="18" fill="white"/>
</clipPath>
</defs>
</svg>
