<svg width="24" height="24" fill="none" xmlns="http://www.w3.org/2000/svg"><g filter="url(#a)"><path d="m18 13-1.3-6.498c-.072-.363-.108-.545-.197-.692a1 1 0 0 0-.312-.325c-.144-.094-.324-.138-.684-.225L2 2m0 0 3.26 13.507c.087.36.13.54.225.684a1 1 0 0 0 .325.312c.147.088.329.125.692.197L13 18M2 2l7.586 7.586m0 0a2 2 0 1 0 2.828 2.829 2 2 0 0 0-2.828-2.829Zm6.545 11.283 4.738-4.738c.396-.396.594-.594.668-.822a1 1 0 0 0 0-.618c-.074-.228-.272-.426-.668-.822l-.738-.738c-.396-.396-.594-.594-.822-.668a1 1 0 0 0-.618 0c-.228.074-.426.272-.822.668L13.13 17.87c-.396.396-.594.594-.668.822a1 1 0 0 0 0 .618c.074.228.272.426.668.822l.738.738c.396.396.594.594.822.668a1 1 0 0 0 .618 0c.228-.074.426-.272.822-.668l.001-.001Z" stroke="url(#b)" stroke-width="2" stroke-linecap="round" stroke-linejoin="round"/></g><defs><linearGradient id="b" x1="11.793" y1="2" x2="11.793" y2="21.587" gradientUnits="userSpaceOnUse"><stop stop-color="#fff"/><stop offset="1" stop-color="#737373"/></linearGradient><filter id="a" x="1" y="1" width="21.586" height="22.387" filterUnits="userSpaceOnUse" color-interpolation-filters="sRGB"><feFlood flood-opacity="0" result="BackgroundImageFix"/><feBlend in="SourceGraphic" in2="BackgroundImageFix" result="shape"/><feColorMatrix in="SourceAlpha" values="0 0 0 0 0 0 0 0 0 0 0 0 0 0 0 0 0 0 127 0" result="hardAlpha"/><feOffset dy="1"/><feGaussianBlur stdDeviation=".4"/><feComposite in2="hardAlpha" operator="arithmetic" k2="-1" k3="1"/><feColorMatrix values="0 0 0 0 0 0 0 0 0 0 0 0 0 0 0 0 0 0 0.24 0"/><feBlend in2="shape" result="effect1_innerShadow_80_13"/></filter></defs></svg>